<svg xmlns="http://www.w3.org/2000/svg" viewBox="0 0 805 1024"><path d="M281.714 285.143q9.143 0 15.714-6.571t6.571-15.714-6.571-15.714-15.714-6.571-15.429 6.571-6.286 15.714 6.286 15.714 15.429 6.571zm241.143 0q9.143 0 15.429-6.571t6.286-15.714-6.286-15.714-15.429-6.571-15.714 6.571-6.571 15.714 6.571 15.714 15.714 6.571zm-464 105.143q24 0 41.143 17.143t17.143 41.143v245.714q0 24.571-16.857 41.714t-41.429 17.143T17.143 736 0 694.286V448.572q0-24 17.143-41.143t41.714-17.143zm605.714 10.857v380.571q0 26.286-18.286 44.571t-44 18.286h-42.857v129.714q0 24.571-17.143 41.714t-41.714 17.143-41.714-17.143-17.143-41.714V844.571h-78.857v129.714q0 24.571-17.143 41.714T304 1033.142q-24 0-41.143-17.143t-17.143-41.714l-.571-129.714h-42.286q-26.286 0-44.571-18.286T140 781.714V401.143h524.571zM532 169.714q61.143 31.429 97.714 87.714t36.571 123.143H137.714q0-66.857 36.571-123.143t98.286-87.714L232 94.857q-4-7.429 2.857-11.429 7.429-3.429 11.429 3.429l41.143 75.429q54.286-24 114.857-24t114.857 24l41.143-75.429q4-6.857 11.429-3.429 6.857 4 2.857 11.429zm272.571 278.858v245.714q0 24.571-17.143 41.714t-41.714 17.143q-24 0-41.143-17.143t-17.143-41.714V448.572q0-24.571 17.143-41.429t41.143-16.857q24.571 0 41.714 16.857t17.143 41.429z"/></svg>