<svg xmlns="http://www.w3.org/2000/svg" viewBox="0 0 1024 1024"><path d="M885.067 561.866l.267-.267.267-.267.267-.267.267-.267c2.667-3.2 4.8-6.667 6.4-10.4v-.267-.267-.267c1.6-4 2.667-8.267 2.933-12.8s0-.267 0-.267v-.267-.267-.267-.267-3.2-.267-.267-.267-.267-.267c-.267-4.533-1.333-8.8-2.933-12.8v-.267-.267s0-.267-.267-.267c-1.6-4-4-7.467-6.667-10.933s-.267-.267-.267-.267l-.267-.267-.267-.267v-.267l-1.6-1.6-256-256c-16.533-16.533-43.733-16.533-60.267 0s-16.533 43.733 0 60.267l183.2 183.2H170.666c-23.467 0-42.667 19.2-42.667 42.667s19.2 42.667 42.667 42.667h579.733l-183.2 183.2c-16.533 16.533-16.533 43.733 0 60.267 8.267 8.267 19.2 12.533 30.133 12.533s21.867-4.267 30.133-12.533L883.198 564.26c.8-1.067 1.333-1.867 1.867-2.4z"/></svg>