<svg xmlns="http://www.w3.org/2000/svg" viewBox="0 0 1024 1024"><path d="M861.301 514.434H698.182c-14.257 0-25.998 11.741-25.998 25.998v101.897H493.969c-14.257 0-25.998 11.741-25.998 25.998v95.607H289.756c-14.257 0-25.998 11.741-25.998 25.998v121.605c0 14.257 11.741 25.998 25.998 25.998s25.998-11.741 25.998-25.998V815.93h178.215c14.257 0 25.998-11.741 25.998-25.998v-95.607h178.215c14.257 0 25.998-11.741 25.998-25.998v-2.935-98.542H861.3c14.257 0 25.998-11.741 25.998-25.998-.419-14.676-11.741-26.418-25.998-26.418zM537.998 216.291c37.32 8.387 74.221-14.676 83.027-51.997s-14.676-74.221-51.997-83.027-74.221 14.676-83.027 51.997c-8.387 37.32 15.096 74.221 51.997 83.027zM304.013 707.325l122.025-65.835c8.806-4.613 14.676-12.999 16.773-22.644l29.772-137.12 101.058 35.643-5.451 78.414c-1.258 18.45 8.806 34.385 27.256 35.643h2.097c17.612 0 32.288-13.838 33.127-31.45l7.129-105.671c.839-13.419-3.774-31.03-31.45-41.094l-97.704-34.385 15.096-66.673 23.063 44.868c3.355 6.29 8.806 11.322 15.515 13.419l93.51 32.708c.839.419 2.097.419 2.935.839 15.096 3.355 29.772-5.871 33.127-20.966 2.935-13.838-4.613-27.676-18.031-32.288l-83.027-28.934s-53.255-109.445-56.19-114.477c-.419-15.096-11.322-28.095-25.998-31.45-10.903-2.516-22.224.839-30.192 8.387l-128.734 54.513c-7.548 3.355-13.419 9.645-15.934 17.612L299.4 406.248c-4.613 14.676 3.774 30.192 18.45 34.804.839.419 1.258.419 2.097.419 14.257 3.355 28.514-5.032 32.708-18.87l30.192-97.704 60.803-25.579-63.738 291.433-108.187 58.706c-15.515 8.387-21.805 27.256-14.676 43.191l1.258 2.516c9.225 15.096 29.353 20.966 45.707 12.161z"/></svg>