<svg xmlns="http://www.w3.org/2000/svg" viewBox="0 0 1536 1024"><path d="M1239.947 707.857h-73.758v34.129h74.246c38.366 0 59.746-15.966 59.746-50.217 0-16.29-4.073-26.065-11.362-33.722-8.634-8.716-22.767-12.218-43.415-12.79l-20.364-.57a43.765 43.765 0 0 1-15.094-1.873c-4.619-1.944-8.027-6.709-8.027-12.27a13.3 13.3 0 0 1 5.688-10.916c3.872-2.635 8.188-2.92 15.275-2.92h69.766v-33.846h-76.649c-39.872 0-54.37 24.438-54.37 47.366 0 50.38 44.556 48.058 80.111 49.239a19.573 19.573 0 0 1 2.047-.106c4.315 0 8.31 1.366 11.577 3.69a13.622 13.622 0 0 1 4.581 10.479v.067c0 4.064-1.72 7.726-4.474 10.298-3.186 3.021-8.276 3.957-15.525 3.957zm46.348-52.171zm1.752 1.792l-1.506-1.548zM854.79 309.218h38.814v159.121H854.79V309.218zm288.634 306.556v-32.908h-126.946v159.121h126.946v-32.99l-89.071-.162v-31.646h86.871v-32.502h-86.871v-28.918h89.071zm-310.708-263.71c0-17.758-7.209-28.102-19.264-35.23s-26.594-7.616-46.063-7.616h-87.441v159.081h38.039v-57.873h40.727c13.686 0 22.156 1.222 27.735 6.801 6.924 7.657 5.986 21.423 5.986 30.993v20.079h38.366v-31.238c0-14.214-.937-21.26-6.313-29.201-4.91-5.955-11.255-10.556-18.513-13.298 15.749-7.15 26.757-22.91 26.757-41.238 0-.442-.008-.884-.02-1.324zm-49.728 22.359c-5.214 3.177-11.404 3.258-18.816 3.258h-46.185V342.33h46.838c.929-.078 2.01-.123 3.102-.123a38.9 38.9 0 0 1 15.198 3.071c4.626 2.33 7.92 7.281 7.92 13.002 0 .335-.011.667-.034.997.025.282.039.664.039 1.047 0 5.963-3.204 11.18-7.985 14.018zm-393.752 42.723l-49.85-107.927h-62.07v150.69l-64.674-150.69h-56.489l-60.154 140.51v18.572h33.356l14.743-35.473h79.215l14.622 35.473h77.382V343.595l55.226 124.706h33.398l55.145-124.625v124.625h38.976V309.22h-63.168zm-231.573-17.513l25.862-63.414 26.025 63.414h-51.887zm1197.951 219.968c4.073-2.607 8.471-2.892 15.394-2.892H1440v-33.846h-75.426c-39.913 0-54.575 24.438-54.575 47.366 0 50.38 44.556 48.058 80.273 49.239a18.575 18.575 0 0 1 2.094-.114c4.248 0 8.173 1.371 11.362 3.695a13.051 13.051 0 0 1 4.59 10.495l.001.092c0 4.054-1.721 7.704-4.474 10.262-3.063 2.981-8.156 4.082-15.404 4.082h-73.31v34.129h73.31c24.111 0 41.95-6.72 51.276-19.958V661.59a18.132 18.132 0 0 0-3.151-3.481c-8.497-8.737-22.385-12.24-43.156-12.81l-20.608-.57c-.642.036-1.394.053-2.15.053-4.462 0-8.768-.675-12.818-1.926-4.482-1.646-7.843-6.15-7.843-11.439 0-.117.002-.232.006-.347a12.212 12.212 0 0 1 5.571-11.439zM653.598 342.33v-33.111h-127.03V468.3h127.03v-32.908h-88.99v-31.767h86.871v-32.623h-86.871V342.33h88.99zm730.972 430.935h-98.56v-14.214c-11.404 9.164-32.054 14.214-51.766 14.214H923.576v-51.318c0-6.272-.61-6.558-6.924-6.558h-4.928v57.873H809.458v-59.951c-17.105 7.414-36.655 8.145-52.945 7.82h-12.218v52.254H620.321l-30.464-34.537-32.378 34.537H356.327V551.177h205.022l29.406 33.967 31.401-33.967h137.25c15.884 0 41.91 1.67 53.598 12.992v-12.992h122.63c11.526 0 36.655 2.321 51.276 12.992v-12.992h185.92v12.992c9.246-8.879 28.794-12.992 45.452-12.992h104.098v12.992c10.914-7.902 26.351-12.992 47.61-12.992H1440v-358.4q0-100.8-100.8-100.8h-1176c-33.6.041-67.2 33.641-67.2 67.241v204.695l37.673-86.262h99.17l12.79 26.188v-26.188h116.278l25.455 57.303 24.762-57.303h369.193c16.78 0 31.889 3.136 42.967 12.951v-12.951h101.046v12.951c17.391-9.53 38.935-12.951 63.454-12.951h146.618l13.602 26.188v-26.188h108.416l14.784 26.188v-26.188h105.484v221.922h-106.786l-20.364-33.559v33.559h-133.015l-14.458-35.351h-32.785l-14.784 35.351h-69.238c-.955.025-2.08.039-3.205.039-21.09 0-41.009-5.009-58.633-13.902l.747 13.863H760.999v-50.38c0-7.127-1.263-7.494-5.58-7.657h-6.15v57.996H431.596v-27.409l-11.322 27.654h-66.345l-11.404-27.126v27.002H214.641l-14.622-35.351h-32.785l-14.662 35.351h-56.57v331.642q0 100.8 100.8 100.8h1142.4q100.8 0 100.8-100.8v-68.177c-15.191 7.249-35.066 10.142-55.43 10.142zM991.266 343.306h36.044v-34.089h-36.655c-26.188 0-45.452 5.865-57.751 18.572-16.29 17.065-20.364 38.609-20.364 62.231 0 28.918 6.966 47.244 20.364 60.726s36.655 17.594 55.145 17.594h44.514l14.377-35.473h79.01l14.784 35.473h77.382V349.091l72.087 119.414h53.882V309.219h-38.935v110.778l-67.159-110.778h-57.914v150.69l-64.39-150.69h-57.018l-53.558 125.114h-17.186c-10.018 0-20.649-1.914-26.513-8.145-7.087-8.145-10.466-20.364-10.466-37.346s4.439-29.324 10.914-36.044c7.657-7.454 15.518-9.489 29.406-9.489zm95.018-7.084l26.31 63.414h-52.497zM760.343 582.865h-121.53l-48.384 52.172-46.796-52.172h-152.93v159.162h150.69l48.67-52.702 46.838 52.702h73.92v-53.393h47.447c33.233 0 66.223-9.122 66.223-53.353s-33.967-52.416-64.145-52.416zM522.089 708.834h-93.673v-31.646h83.49v-32.582h-83.328v-28.918h95.343l41.583 46.39zm150.689 18.695l-58.321-64.838 58.402-62.761v127.599zm87.077-71.232h-49.118V615.57h49.606c13.726 0 23.255 5.58 23.255 19.51s-9.082 21.218-23.744 21.218zm208.563 11.729l1.833-.734zm26.964-42.315c0-18.166-7.535-28.102-19.55-35.351s-26.513-7.494-45.777-7.494h-87.767v159.162h38.202v-58.159h40.727c13.888 0 22.359 1.344 27.898 7.046 7.087 7.414 6.15 21.585 6.15 31.158v19.916h38.161v-31.564c0-14.01-.937-21.26-6.313-29.039-4.773-6.018-11.076-10.628-18.325-13.266 15.674-7.106 26.615-22.775 26.615-41 0-.495-.008-.988-.023-1.478zm-49.933 22.522c-4.513 2.156-9.808 3.415-15.396 3.415-1.19 0-2.366-.057-3.527-.169l-46.038.011v-35.759h46.838a36.19 36.19 0 0 1 3.371-.152c5.346 0 10.432 1.12 15.033 3.138 4.498 2.528 7.652 7.498 7.652 13.206 0 .351-.012.698-.036 1.044.017.21.024.512.024.813 0 6.045-3.13 11.362-7.855 14.414zM144.873 64h1246.255c26.992 0 48.873 21.881 48.873 48.873v99.782c0 26.992-21.881 48.873-48.873 48.873H144.873c-26.992 0-48.873-21.881-48.873-48.873v-99.782C96 85.881 117.881 64 144.873 64zm0 721.809h1246.255c26.992 0 48.873 21.881 48.873 48.873v76.446c0 26.992-21.881 48.873-48.873 48.873H144.873C117.881 960.001 96 938.12 96 911.128v-76.446c0-26.992 21.881-48.873 48.873-48.873z"/></svg>