<svg xmlns="http://www.w3.org/2000/svg" viewBox="0 0 1317 1024"><path d="M490.286 718.286v-396Q429.715 345.715 392 399.715t-37.714 120.857T392 641.429t98.286 76.857zm288-197.714q0-66.857-37.714-120.857t-98.286-77.429v396.571q60.571-23.429 98.286-77.429t37.714-120.857zm122.857 0q0 90.857-44.857 168t-122 122-168 44.857q-68 0-130-26.571t-106.857-71.429T258 650.572t-26.571-130q0-90.857 44.857-168t122-122 168-44.857 168 44.857 122 122 44.857 168zm218.857 4q0-79.429-31.714-149.429T1004 257.714t-122-74.857-144.286-27.429h-172q-100.571 0-184.857 46.286T246.571 333.143t-50 191.429q0 97.714 49.714 181.429t134.857 132.286 184.571 48.571h172q73.714 0 143.714-28.857t122.571-77.143 84.286-115.714 31.714-140.571zm196.571-369.143v731.429q0 29.714-21.714 51.429t-51.429 21.714H73.142q-29.714 0-51.429-21.714T-.001 886.858V155.429q0-29.714 21.714-51.429t51.429-21.714h1170.286q29.714 0 51.429 21.714t21.714 51.429z"/></svg>