<svg xmlns="http://www.w3.org/2000/svg" viewBox="0 0 1317 1024"><path d="M425.714 517.714q0 21.143-14.571 35.143t-35.714 14q-16.571 0-26.571-9.143t-10-25.143q0-21.143 14.286-35.714t35.429-14.571q16 0 26.571 9.429t10.571 26zm448.572-85.143q0 24-12.571 32.571t-37.714 8.571l-18.286.571 9.714-61.143q1.143-6.286 7.429-6.286h10.286q12.571 0 20 1.143t14.286 7.143 6.857 17.429zm200.571 85.143q0 20.571-14.571 34.857t-35.143 14.286q-16.571 0-26.857-9.143T988 532.571q0-21.143 14.286-35.714t35.429-14.571q16 0 26.571 9.429t10.571 26zM293.143 420q0-33.714-22-48.857T213.714 356h-91.429q-10.857 0-12 10.857L73.142 600q-.571 3.429 1.714 6.286t5.714 2.857h43.429q11.429 0 12.571-10.857l10.286-62.857q.571-4.571 4-7.429t8.571-3.714 9.714-.857 10.857.571 8 .571q49.143 0 77.143-27.714t28-76.857zm176.571 178.286l23.429-149.143q.571-3.429-1.714-6.286T485.715 440h-43.429q-8 0-9.714 18.857Q417.143 436 378.286 436q-41.143 0-70 30.857t-28.857 72.571q0 33.714 19.714 53.714t52.857 20q16 0 33.143-6.857t27.429-18.286q-2.286 6.857-2.286 12 0 9.143 7.429 9.143h39.429q10.857 0 12.571-10.857zM725.143 448q0-2.857-2.286-5.429T717.714 440h-44q-6.286 0-10.286 5.714l-60.571 89.143-25.143-85.714Q574.857 440 565.143 440h-42.857q-2.857 0-5.143 2.571T514.857 448q0 1.143 11.143 33.714T550 552t13.429 40q-46.857 64-46.857 68.571 0 7.429 7.429 7.429h44q6.286 0 10.286-5.714L724.001 452q1.143-1.143 1.143-4zm217.143-28q0-33.714-22-48.857T862.857 356H772q-11.429 0-12.571 10.857L722.286 600q-.571 3.429 1.714 6.286t5.714 2.857h46.857q6.857 0 9.143-7.429L796 535.428q.571-4.571 4-7.429t8.571-3.714 9.714-.857 10.857.571 8 .571q49.143 0 77.143-27.714t28-76.857zm176.571 178.286l23.429-149.143q.571-3.429-1.714-6.286t-5.714-2.857h-43.429q-8 0-9.714 18.857Q1066.858 436 1027.429 436q-41.143 0-70 30.857t-28.857 72.571q0 33.714 19.714 53.714t52.857 20q16.571 0 33.714-6.857t26.857-18.286q0 .571-1.143 5.143t-1.143 6.857q0 9.143 7.429 9.143h39.429q10.857 0 12.571-10.857zm124.572-233.715V364q0-8-7.429-8h-42.286q-6.286 0-7.429 6.286L1149.142 600l-.571 1.143q0 2.857 2.286 5.429t5.714 2.571h37.714q10.857 0 12-10.857zM224 441.143q-2.857 20-14.857 26.286t-34.286 6.286l-18.857.571 9.714-61.143q1.143-6.286 7.429-6.286H184q22.857 0 33.143 6.571T224 441.142zm1092.571-294.857v731.429q0 29.714-21.714 51.429t-51.429 21.714H73.142q-29.714 0-51.429-21.714T-.001 877.715V146.286q0-29.714 21.714-51.429t51.429-21.714h1170.286q29.714 0 51.429 21.714t21.714 51.429z"/></svg>