<svg xmlns="http://www.w3.org/2000/svg" viewBox="0 0 1536 1024"><path d="M362.927 611.294q-6.842-5.621-23.134-5.621h-9.897v47.733h9.163q16.006 0 23.377-5.457c4.55-3.674 7.437-9.25 7.437-15.502 0-.565-.023-1.124-.07-1.676q.006-13.694-6.879-19.477zm159.814 1.18l-3.829-15.639q-1.63 6.679-3.177 12.789t-3.177 11.648l-18.246 59.91h49.239l-18.49-59.91q-.855-2.729-2.321-8.798zm596.246-224.122q10.671-7.861 10.671-24.721 0-19.712-9.937-28.021t-33.397-8.145h-14.336v68.789h13.237q23.134 0 33.762-7.902zM1391.127 64H144.872c-26.992 0-48.873 21.881-48.873 48.873v798.255c0 26.992 21.881 48.873 48.873 48.873h1246.255c26.992 0 48.873-21.881 48.873-48.873V112.873C1440 85.881 1418.119 64 1391.127 64zm-150.935 208.279h160.67v57.506h-91.189v45.493h85.813v56.245h-85.813v44.23h90.985v58.769h-160.465zm-235.2 0h74.694q43.863 0 61.09 4.073c11.382 2.535 21.387 7.231 30.019 13.669a71.047 71.047 0 0 1 21.361 26.819c4.995 10.928 7.803 23.191 7.803 36.113 0 .346-.002.693-.007 1.038q.001 30.412-14.946 49.471t-43.537 25.374l71.477 105.89h-80.762l-60.194-102.633v102.633h-66.997zm-129.879 0H947.2v262.242h-72.087zm-744.455-1.913H457.86v51.927H130.658zm0 100.8H457.86v51.927H130.658zm0 109.963H457.86v51.927H130.658zm128.658 129.228h-40.727V748.83h-49.28V610.357h-40.727v-42.886h130.735zM563.142 748.83l-9.163-32.582h-70.295l-9.408 32.582H371.562l-41.664-70.865v71.07h-46.551V567.473h51.723c2.085-.073 4.536-.114 6.995-.114 12.489 0 24.731 1.063 36.637 3.104 6.608 1.571 13.539 4.825 19.514 9.289a49.082 49.082 0 0 1 14.803 18.571c3.447 7.558 5.383 16.038 5.383 24.971 0 .263-.002.525-.006.788.035.69.056 1.546.056 2.404a53.724 53.724 0 0 1-10.505 31.997c-7.404 8.881-17.879 15.214-29.809 17.359l47.751 70.749 61.783-179.2h62.027l62.761 181.562zm-3.34-214.471l-73.961-262.08h72.169l30.097 125.399q2.159 9.694 4.073 19.345t3.87 19.874q1.63-7.535 3.503-15.761t5.662-23.458l32.949-125.399h57.67l32.949 124.666q2.321 8.431 4.318 17.553t4.073 20.975q2.688-13.969 4.561-23.01t3.665-15.477l30.79-124.666h72.209l-74.165 262.242h-66.059l-32.582-111.959q-1.792-5.905-5.905-23.093-1.792-7.697-2.85-12.015l-2.526 10.59q-4.073 17.391-6.272 24.437l-31.889 111.959zM807.179 748.83h-47.326l-68.585-93.673c-2.191-3.229-4.399-6.99-6.366-10.89q-4.793-9.229-10.129-20.958 1.506 11.403 2.159 20.363t.693 15.639v89.6H629.77v-181.44h47.733l68.585 93.387c2.039 3.129 4.206 6.887 6.181 10.759q4.857 9.359 10.314 21.091-1.506-11.281-2.159-20.079t-.693-15.639v-89.6h47.488zm139.776-12.708q-18.978 17.553-50.583 17.553c-.512.01-1.118.017-1.725.017-11.873 0-23.206-2.309-33.577-6.503a98.477 98.477 0 0 1-29.337-20.152l22.322-36.652c6.177 7.313 13.349 13.528 21.368 18.514 6.475 3.992 13.839 6.278 21.726 6.411.343.014.7.021 1.059.021 5.799 0 11.124-2.02 15.315-5.394a16.82 16.82 0 0 0 6.346-13.499 17.621 17.621 0 0 0-5.489-13.906q-5.547-4.894-25.014-10.108-26.677-7.168-37.713-18.735a43.614 43.614 0 0 1-11.109-29.157c0-.875.025-1.743.077-2.607a34.91 34.91 0 0 1-.039-1.831c0-15.953 6.699-30.342 17.439-40.504a62.944 62.944 0 0 1 42.45-16.376c.979 0 1.953.021 2.92.066a2.583 2.583 0 0 1 .3-.007 98.758 98.758 0 0 1 28.772 4.257 91.897 91.897 0 0 1 25.102 12.236l-15.823 35.396a65.047 65.047 0 0 0-16.888-10.671 45.959 45.959 0 0 0-17.953-3.829 23.897 23.897 0 0 0-1.062-.023c-5.047 0-9.72 1.611-13.529 4.347a13.206 13.206 0 0 0-5.51 10.916 13.453 13.453 0 0 0 4.866 10.888c5.418 3.652 11.758 6.371 18.577 7.778l2.583.67q30.261 8.145 39.791 18.001a44.426 44.426 0 0 1 9.719 15.736c2.217 6.266 3.441 13.139 3.441 20.294 0 .276-.002.553-.006.829.033.693.05 1.556.05 2.422 0 17.219-7.22 32.753-18.799 43.737zm157.982-129.024h-62.965v31.482h59.422v38.935h-59.422v71.313H993.75V567.469h111.226zm138.147 0h-62.965v31.482h59.422v38.935h-59.422v30.626h63.006v40.727h-111.226v-181.44h111.226zm120.797 141.732l-41.664-71.07v71.07h-46.347V567.471h51.723c2.086-.073 4.538-.114 6.998-.114 12.488 0 24.729 1.063 36.634 3.105 6.608 1.571 13.539 4.825 19.515 9.289a49.082 49.082 0 0 1 14.803 18.571c3.447 7.558 5.383 16.038 5.383 24.971 0 .263-.002.525-.006.788.035.69.056 1.546.056 2.404a53.724 53.724 0 0 1-10.505 31.997c-7.395 8.872-17.855 15.205-29.767 17.359l49.175 73.355zm-8.594-137.536q-6.882-5.783-23.134-5.783h-9.937v47.733h9.163q16.006 0 23.377-5.457c4.55-3.674 7.437-9.25 7.437-15.502 0-.565-.023-1.124-.07-1.676q.046-13.531-6.838-19.313z"/></svg>