<svg xmlns="http://www.w3.org/2000/svg" viewBox="0 0 1079 1024"><path d="M510.286 9.143C597.715 8.572 686.857 30.857 768 77.714c89.714 52 157.714 126.857 201.143 212.571l-424-22.286c-120-6.857-234.286 60.571-273.714 173.714L113.715 199.427C212.001 77.141 359.429 9.713 510.286 9.141zM83.429 240.572L276 619.429c54.286 106.857 169.143 172 288 149.714l-131.429 257.714C187.428 989.143 0 777.143 0 521.143c0-103.429 30.857-200 83.429-280.571zm906.285 96.571c89.714 230.857 0 499.429-221.714 627.429-89.714 52-188.571 73.143-284.571 68l231.429-356c65.714-101.143 64.571-233.143-13.714-324.571zM512 348.572c95.429 0 172.571 77.143 172.571 172.571S607.428 693.714 512 693.714s-172.571-77.143-172.571-172.571S416.572 348.572 512 348.572z"/></svg>