<svg xmlns="http://www.w3.org/2000/svg" viewBox="0 0 1427 1024"><path d="M0 9.143v142.676h93.334l218.77 881.621h211.934l170.617-646.799c6.223-17.759 10.935-38.505 13.264-59.967a290.928 290.928 0 0 0 2.778-32.986l5.359-.382 3.864 32.102c1.773 7.143 3.44 16.228 4.621 25.464 1.853 14.463 4.454 26.227 7.972 37.589l170.211 645.275h211.934l218.77-881.324h93.334V9.141h-400.088v142.676h118.897l-130.787 584.081c-4.412 17.729-7.687 38.656-9.151 60.081l-2.738 29.092h-5.35l-3.864-27.941-5.35-27.941q-3.864-21.401-6.539-33.291L789.476 9.14H637.288L445.864 735.898q-2.675 11.89-5.945 32.697l-4.756 29.724-5.35 27.941h-5.35l-2.675-27.941c-1.527-22.576-4.803-43.503-9.739-63.78L280.003 151.817H398.9V9.141z"/></svg>