<svg xmlns="http://www.w3.org/2000/svg" viewBox="0 0 1024 1024"><path d="M39.429 463.429H40C69.714 226.858 231.429 8.572 520.571 9.143c175.429 0 320 82.286 404.571 233.714 43.429 78.286 59.429 161.714 59.429 252.571v107.429H341.714c2.857 265.143 389.714 256 556.571 139.429v215.429c-97.714 58.857-318.286 109.714-490.286 44-145.714-56-247.429-207.429-249.143-354.857-2.286-190.286 94.286-316.571 249.143-388.571-32.571 41.143-57.714 85.714-70.857 162.857h362.857c21.143-216.571-205.143-216.571-205.143-216.571-213.714 7.429-368 132-455.429 258.857z"/></svg>