<svg xmlns="http://www.w3.org/2000/svg" viewBox="0 0 1088 1024"><path d="M736 9.143h64v485.44h-64V9.143zm-416 0h64v170.56h-64V9.143zm32 0h448v64H352v-64zm256 320h64v64h-64v-64zm0-160h64v64h-64v-64zm-384 608h64v256h-64v-256zm128 0h64v256h-64v-256zm-128 0h192v64H224v-64zm-224 192h1088v64H0v-64zm256-672h64v64h-64v-64zm0 160h64v64h-64v-64zm0 160h64v64h-64v-64zm512 32h64v64h-64v-64zm0 160h64v64h-64v-64zm-672-672h64v882.56H96v-882.56zm384 0h64v877.44h-64v-877.44zm-379.84 0h416v64h-416v-64zM576 455.863h416v64H576v-64zm0 0h64v545.28h-64v-545.28zm352 0h64v545.28h-64v-545.28z"/></svg>