<svg xmlns="http://www.w3.org/2000/svg" viewBox="0 0 805 1024"><path d="M219.429 777.143q0 45.714-32 77.714t-77.714 32-77.714-32-32-77.714 32-77.714 77.714-32 77.714 32 32 77.714zM512 847.429q1.143 16-9.714 27.429-10.286 12-26.857 12h-77.143q-14.286 0-24.571-9.429t-11.429-23.714q-12.571-130.857-105.429-223.714T33.143 524.572q-14.286-1.143-23.714-11.429T0 488.572v-77.143q0-16.571 12-26.857 9.714-9.714 24.571-9.714h2.857q91.429 7.429 174.857 46t148 103.714q65.143 64.571 103.714 148t46 174.857zm292.571 1.143q1.143 15.429-10.286 26.857-10.286 11.429-26.286 11.429h-81.714q-14.857 0-25.429-10t-11.143-24.286q-6.857-122.857-57.714-233.429t-132.286-192-192-132.286-233.429-58.286Q19.998 236 9.998 225.428t-10-24.857v-81.714q0-16 11.429-26.286Q21.713 82.285 36.57 82.285h1.714q149.714 7.429 286.571 68.571t243.143 168q106.857 106.286 168 243.143t68.571 286.571z"/></svg>