<svg xmlns="http://www.w3.org/2000/svg" viewBox="0 0 977 1024"><path d="M516 1033.143c-220.571 0-396-129.143-476.571-313.714-90.286-205.143-18.286-533.714 142.286-678.857l-6.286 160.571c8-10.286 69.143-13.143 78.857 0 33.143-63.429 140-110.857 225.714-112.571-32.571 27.429-108 127.429-101.714 178.286 41.714 13.143 105.714 13.714 139.429 16 10.286 5.714 8.571 40.571-12 69.143 0 0-26.857 37.143-99.429 50.286l8.571 108-79.429-38.286c-25.714 65.143 36 122.857 100 112 70.857-12 96-58.286 145.714-55.429 49.143 2.857 68.571 30.286 62.286 56 0 0-8 30.857-61.143 25.714-45.143 71.429-105.143 102.857-202.286 94.286 147.429 122.286 346.286 11.429 396.571-88.571 50.286-99.429 6.286-247.429-44-289.143 59.429 25.714 100.571 52 122.286 109.714 11.429-128-47.429-273.143-152.571-358.286C899.999 136 1020.571 289.143 1023.999 533.715s-216.571 499.429-508 499.429z"/></svg>