<svg xmlns="http://www.w3.org/2000/svg" viewBox="0 0 1317 1024"><path d="M821.143 530.857q0 118.857-49.714 211.714T629.715 887.714 418.858 940q-85.143 0-162.857-33.143t-133.714-89.143T33.144 684 .001 521.143t33.143-162.857 89.143-133.714 133.714-89.143 162.857-33.143q163.429 0 280.571 109.714L585.715 321.143q-66.857-64.571-166.857-64.571-70.286 0-130 35.429t-94.571 96.286-34.857 132.857 34.857 132.857 94.571 96.286 130 35.429q47.429 0 87.143-13.143t65.429-32.857 44.857-44.857 28-47.429 12.286-42.286H418.859v-144h395.429q6.857 36 6.857 69.714zm495.428-69.714v120h-119.429v119.429h-120V581.143H957.713v-120h119.429V341.714h120v119.429h119.429z"/></svg>