<svg xmlns="http://www.w3.org/2000/svg" viewBox="0 0 1024 1024"><path d="M292.571 722.286V832q0 22.857-16 38.857t-38.857 16H54.857q-22.857 0-38.857-16T0 832V722.286q0-22.857 16-38.857t38.857-16h182.857q22.857 0 38.857 16t16 38.857zm0-292.572v109.714q0 22.857-16 38.857t-38.857 16H54.857q-22.857 0-38.857-16T0 539.428V429.714q0-22.857 16-38.857t38.857-16h182.857q22.857 0 38.857 16t16 38.857zm365.715 292.572V832q0 22.857-16 38.857t-38.857 16H420.572q-22.857 0-38.857-16t-16-38.857V722.286q0-22.857 16-38.857t38.857-16h182.857q22.857 0 38.857 16t16 38.857zM292.571 137.143v109.714q0 22.857-16 38.857t-38.857 16H54.857q-22.857 0-38.857-16T0 246.857V137.143q0-22.857 16-38.857t38.857-16h182.857q22.857 0 38.857 16t16 38.857zm365.715 292.571v109.714q0 22.857-16 38.857t-38.857 16H420.572q-22.857 0-38.857-16t-16-38.857V429.714q0-22.857 16-38.857t38.857-16h182.857q22.857 0 38.857 16t16 38.857zM1024 722.286V832q0 22.857-16 38.857t-38.857 16H786.286q-22.857 0-38.857-16t-16-38.857V722.286q0-22.857 16-38.857t38.857-16h182.857q22.857 0 38.857 16t16 38.857zM658.286 137.143v109.714q0 22.857-16 38.857t-38.857 16H420.572q-22.857 0-38.857-16t-16-38.857V137.143q0-22.857 16-38.857t38.857-16h182.857q22.857 0 38.857 16t16 38.857zM1024 429.714v109.714q0 22.857-16 38.857t-38.857 16H786.286q-22.857 0-38.857-16t-16-38.857V429.714q0-22.857 16-38.857t38.857-16h182.857q22.857 0 38.857 16t16 38.857zm0-292.571v109.714q0 22.857-16 38.857t-38.857 16H786.286q-22.857 0-38.857-16t-16-38.857V137.143q0-22.857 16-38.857t38.857-16h182.857q22.857 0 38.857 16t16 38.857z"/></svg>