<svg xmlns="http://www.w3.org/2000/svg" viewBox="0 0 1024 1024"><path d="M950.857 349.714q0-46.286-12.286-81.714t-31.429-56.286-46.571-34T806.857 160t-56-4.571-64 14.571-63.143 36.571-49.429 41.143-34.286 35.143q-10.286 12.571-28 12.571t-28-12.571q-13.714-16-34.286-35.143t-49.429-41.143T337.141 170t-64-14.571-56 4.571-53.714 17.714-46.571 34T85.427 268t-12.286 81.714q0 96 106.857 202.857l332 320 331.429-319.429q107.429-107.429 107.429-203.429zm73.143 0Q1024 476 893.143 606.857l-356 342.857Q526.857 960 512 960t-25.143-10.286l-356.571-344q-5.714-4.571-15.714-14.857t-31.714-37.429-38.857-55.714-30.571-69.143T.001 349.714Q.001 224 72.572 153.143t200.571-70.857q35.429 0 72.286 12.286T414 127.715t54.571 39.143T512 205.715q20.571-20.571 43.429-38.857T610 127.715t68.571-33.143 72.286-12.286q128 0 200.571 70.857t72.571 196.571z"/></svg>