<svg xmlns="http://www.w3.org/2000/svg" viewBox="0 0 1024 1024"><path d="M836.437 118.455L693.674 252.3c-54.187-18.261-114.603-29.824-181.035-29.824-322.944 0-512.64 279.509-512.64 279.509S82.26 627.894 219.562 721.206L95.359 845.323l60.331 60.331 741.12-726.827-60.373-60.373zM579.755 365.026c-140.288-61.995-285.056 81.408-224.64 222.123l-73.643 72.832c-77.397-49.493-137.6-113.067-173.227-156.16C171.946 433.506 313.77 307.81 512.64 307.81c39.552 0 76.629 5.077 111.36 13.44l-44.245 43.776zM456.747 682.082L673.92 469.047c43.392 132.736-85.461 258.859-217.173 213.035zM1024 501.986S842.581 819.81 512.64 819.81c-58.837 0-113.579-12.416-164.309-31.445l68.864-67.541c30.507 8.235 62.208 13.653 95.445 13.653 204.416 0 345.771-150.485 405.504-228.864-31.104-35.072-83.456-84.907-153.045-125.952l63.531-62.293c127.232 81.067 195.371 184.619 195.371 184.619z"/></svg>