<svg xmlns="http://www.w3.org/2000/svg" viewBox="0 0 1569 1024"><path d="M0 9.143h1568.681v108.936H0V9.143zm1459.745 0h108.936v1024h-108.936v-1024zM0 924.207h1568.681v108.936H0V924.207zM0 9.143h108.936v1024H0v-1024zm239.66 370.383h348.596v87.149H239.66v-87.149zm0 130.723h348.596v87.149H239.66v-87.149zm0 130.724h348.596v87.149H239.66v-87.149zm566.468-239.66c0 120.328 97.545 217.872 217.872 217.872s217.872-97.545 217.872-217.872c0-120.328-97.545-217.872-217.872-217.872s-217.872 97.545-217.872 217.872zm108.936 0c0-60.164 48.772-108.936 108.936-108.936s108.936 48.772 108.936 108.936c0 60.164-48.772 108.936-108.936 108.936s-108.936-48.772-108.936-108.936zm435.745 435.745c0-180.491-146.317-326.809-326.809-326.809S697.191 656.566 697.191 837.058h108.936c0-120.328 97.545-217.872 217.872-217.872s217.872 97.545 217.872 217.872h108.936z"/></svg>