<svg xmlns="http://www.w3.org/2000/svg" viewBox="0 0 800 1024"><path d="M784 361.143h-64v-48h-.8C707.031 146.414 568.774 15.756 400 15.756S92.969 146.414 80.861 312.097L80 313.142v48H0v672h800v-672h-16zm-624-32c0-132.548 107.452-240 240-240s240 107.452 240 240v32H160v-32zm-80 624v-512h640v512H80zm352-264c0 22.091-17.909 40-40 40s-40-17.909-40-40 17.909-40 40-40 40 17.909 40 40zm128 0c0 22.091-17.909 40-40 40s-40-17.909-40-40 17.909-40 40-40 40 17.909 40 40zm-256 0c0 22.091-17.909 40-40 40s-40-17.909-40-40 17.909-40 40-40 40 17.909 40 40z"/></svg>