<svg xmlns="http://www.w3.org/2000/svg" viewBox="0 0 1072 1024"><path d="M1072 473.143v-32h-64c-2.883.094-6.273.148-9.675.148-50.639 0-98.505-11.869-140.97-32.977-38.258-16.314-70.062-46.462-88.888-84.215L768 9.144H0v1024h768v-2.56c161.92-25.44 290.4-242.72 302.88-513.92h1.12v-43.52zm-992-384h608v224H80v-224zm0 304h602.72c-32 28.48-96 48-170.72 48h-64v75.36h1.12c2.248 48.414 7.969 93.91 16.973 138.214L80 648.983v-255.84zm0 336h405.12c25.042 87.299 68.529 162.52 126.214 224.318L80 953.143v-224zm680 221.76c-121.76-21.28-218.72-202.24-230.72-429.76 102.88-4 190.24-43.36 230.72-98.56 40.48 55.2 128 94.56 230.72 98.56-12 227.52-108.96 408.48-230.72 429.76z"/></svg>