<svg xmlns="http://www.w3.org/2000/svg" viewBox="0 0 1418 1024"><path d="M256 304.528c0 163.136 132.248 295.385 295.385 295.385S846.77 467.665 846.77 304.528c0-163.136-132.248-295.385-295.385-295.385S256 141.391 256 304.528zm98.462 0c0-108.758 88.165-196.923 196.923-196.923s196.923 88.165 196.923 196.923-88.165 196.923-196.923 196.923-196.923-88.165-196.923-196.923zm672.689 498.609c-90.568-180.045-273.867-301.415-485.514-301.415-295.566 0-535.847 236.699-541.629 530.881l98.453.54c4.591-241.163 201.171-434.902 443.001-434.902 178.588 0 332.499 105.658 402.631 257.874 25.059-17.99 51.921-36.494 80.721-51.842zm-101.613-163.84c0 108.758 88.165 196.923 196.923 196.923s196.923-88.165 196.923-196.923-88.165-196.923-196.923-196.923-196.923 88.165-196.923 196.923zm98.462 0c0-54.379 44.083-98.462 98.462-98.462s98.462 44.083 98.462 98.462c0 54.379-44.083 98.462-98.462 98.462S1024 693.676 1024 639.297zm393.846 393.846c0-163.136-132.248-295.385-295.385-295.385s-295.385 132.248-295.385 295.385h98.462c0-108.758 88.165-196.923 196.923-196.923s196.923 88.165 196.923 196.923h98.462z"/></svg>