<svg xmlns="http://www.w3.org/2000/svg" viewBox="0 0 1054 1024"><path d="M1053.61 280.03l-156.675-45.229 14.154-95.502-130.156-19.361V9.143H-.001v780.934h32.539l67.518 10.087-2.44 7.484 732.126 225.495 200.602-674.695zm-234.117-72.888l-38.559 258.847V201.285zM579.681 790.077h152.445l-3.254 22.289zM81.347 90.49h618.24v618.24H81.347V90.49zM583.26 871.425l200.928 30.587-8.623 28.96zm227.773-59.547l73.863-496.381 67.844 19.686zM398.276 422.875c-12.383-3.277-23.202-7.671-33.287-13.231l-5.76 2.168-100.871 174.409-29.448 8.623L341.657 399.61l-1.139-6.182c-9.258-7.837-17.347-16.598-24.272-26.25l-8.429-.432L180.59 586.709v3.742l14.643 54.991 6.02 3.417 116.164-31.075 3.091-6.67-6.996-25.868 25.868-6.67 3.417-6.02-6.996-25.868 25.868-6.833 3.417-6.02-7.159-25.38 25.868-6.996 3.417-6.02-6.508-25.706 26.031-6.996 3.417-6.02-8.135-30.424zm80.046-67.03c-12.708 8.065-28.186 12.853-44.781 12.853h-.129c-46.735-.214-84.544-38.154-84.544-84.926 0-8.227 1.17-16.18 3.352-23.703l36.457.6 3.417-8.297-54.991-56.292h-7.484l-54.991 56.292 3.417 8.297h26.682c-1.421 7.219-2.234 15.52-2.234 24.011 0 71.883 58.273 130.156 130.156 130.156 25.883 0 50.001-7.555 70.269-20.58l1.11-6.36-19.035-30.424zm112.91-51.249H562.11c1.158-6.521 1.82-14.028 1.82-21.689 0-71.883-58.273-130.156-130.156-130.156-26.8 0-51.708 8.1-72.41 21.985l-.995 6.537 19.523 29.936 6.833 1.464c13.063-8.667 29.105-13.829 46.354-13.829h.04c46.994 0 85.089 38.096 85.089 85.089 0 7.456-.959 14.688-2.76 21.58l-34.034-.592-3.417 8.297 54.991 56.292h6.996l54.991-56.292z"/></svg>