<svg xmlns="http://www.w3.org/2000/svg" viewBox="0 0 1451 1024"><path d="M0 947.81h1450.667v85.333H0V947.81zm1066.667-512H1152v554.667h-85.333V435.81zm-768 0H384v554.667h-85.333V435.81zm256 213.333H640v341.333h-85.333V649.143zm256 0H896v341.333h-85.333V649.143zm-256-85.333H896v85.333H554.667V563.81zm128-170.667H768v85.333h-85.333v-85.333zM853.333 44.13h85.333v213.333h-85.333V44.13zM298.954 435.654L725.858 8.75l60.34 60.34-426.904 426.904-60.34-60.34zM670.991 75.223l60.34-60.34 420.87 420.87-60.34 60.34-420.87-420.87z"/></svg>