<svg xmlns="http://www.w3.org/2000/svg" viewBox="0 0 1024 1024"><path d="M1024 544.572c0 20-1.143 40-4 59.429H362.286c0 113.714 100 196 209.714 196 74.286 0 145.714-36.571 184-101.143h241.714C932.571 882.287 758.285 1005.144 564 1005.144c-70.286 0-140.571-16.571-203.429-47.429-64 32.571-153.714 66.286-225.143 66.286-96 0-135.429-58.857-135.429-150.286 0-53.143 11.429-106.286 25.714-157.143 9.143-33.143 45.714-100.571 62.286-130.857 70.286-127.429 162.857-249.714 271.429-346.286-87.429 37.714-182.286 132.571-244 202.286 48-209.143 234.286-357.143 448.571-357.143 8.571 0 17.143 0 25.714.571 70.857-32.571 169.714-66.857 247.429-66.857 92.571 0 172 35.429 172 140 0 54.857-21.143 114.286-42.857 163.429 37.714 68 57.714 145.143 57.714 222.857zm-40-365.715c0-64-45.714-103.429-108.571-103.429-48 0-102.286 19.429-145.143 40 92.571 36 172 102.286 224.571 186.857C969.143 264.571 984 218.856 984 178.856zM73.143 885.714C73.143 952 112.572 988 177.714 988c50.857 0 107.429-22.857 152-47.429C236.571 885.714 164.571 798.285 129.143 696c-26.286 54.857-56 128-56 189.714zm288-407.428h416c-4-110.286-101.143-189.714-208-189.714-107.429 0-204 79.429-208 189.714z"/></svg>