<svg xmlns="http://www.w3.org/2000/svg" viewBox="0 0 1150 1024"><path d="M574.785 621.862c-73.86 74.376-142.812 157.532-263.932 157.532-135.324 0-226.743-111.047-226.743-258.251 0-137.906 94.261-258.251 237.849-258.251 103.3 0 184.39 85.222 253.343 158.049 73.344-74.892 142.295-158.049 263.415-158.049 135.324 0 226.743 111.047 226.743 258.251 0 137.906-94.261 258.251-237.849 258.251-104.333 0-184.649-84.707-252.828-157.532zm-85.998-99.167c-43.644-46.485-97.102-117.762-163.214-117.762-57.884 3.547-103.486 51.358-103.486 109.821 0 2.249.067 4.481.201 6.697-.015 67.872 43.63 115.908 98.637 115.908 64.563 0 118.021-61.98 167.347-114.662zm439.026-1.55c0-68.178-43.644-116.213-98.652-116.213-64.821 0-118.278 61.98-167.604 114.662 43.644 46.485 97.102 117.762 163.214 117.762 57.652-3.811 102.971-51.508 102.971-109.789 0-2.26-.068-4.503-.202-6.73z"/></svg>