<svg width="18" height="18" viewBox="0 0 18 18" fill="none" xmlns="http://www.w3.org/2000/svg">
<path fill-rule="evenodd" clip-rule="evenodd" d="M18 9C18 4.03704 13.963 0 9 0C4.03704 0 0 4.03704 0 9C0 13.963 4.03704 18 9 18C13.963 18 18 13.963 18 9ZM1.5 9C1.5 4.86546 4.86546 1.5 9 1.5C13.1345 1.5 16.5 4.86546 16.5 9C16.5 13.1345 13.1345 16.5 9 16.5C4.86546 16.5 1.5 13.1345 1.5 9ZM9 4.5C8.586 4.5 8.25 4.836 8.25 5.25C8.25 5.664 8.586 6 9 6C9.414 6 9.75 5.664 9.75 5.25C9.75 4.836 9.414 4.5 9 4.5ZM9.75 13.5V7.5H8.25V13.5H9.75Z" fill="#DDDDDD"/>
</svg>
