<svg xmlns="http://www.w3.org/2000/svg" viewBox="0 0 1909 1024"><path d="M959.751 56.632C900.633 26.681 830.863 9.137 756.995 9.137c-.831 0-1.662.002-2.492.007a388.603 388.603 0 0 0-5.383-.035c-72.804 0-141.506 17.564-202.099 48.685-161.924 78.651-256.502 253.441-256.502 469.734s92.583 385.496 256.998 462.117c46.684 20.288 100.807 34.446 157.504 39.746 16.963 1.768 34.178 2.686 51.606 2.686s34.643-.917 51.597-2.706c56.706-5.28 110.829-19.438 160.982-41.056 160.946-78.482 253.529-244.493 253.529-460.786s-98.569-389.886-262.984-470.896zm45.094 630.921c-42.7 128.499-135.283 202.725-250.214 199.532s-207.514-72.231-250.214-199.532c-16.052-49.556-25.306-106.574-25.306-165.754 0-40.222 4.275-79.445 12.395-117.24 26.479-127.244 98.311-215.038 198.875-242.174 19.673-4.311 42.272-6.78 65.447-6.78s45.773 2.469 67.546 7.159c96.869 26.757 167.104 114.552 197.433 245.445 6.804 32.715 10.699 70.31 10.699 108.815 0 60.93-9.754 119.582-27.785 174.48zM6.784 308.841h184.767v723.504H6.784V308.841zM98.968 9.143C43.869 9.143-.798 53.81-.798 108.909s44.667 99.766 99.766 99.766c55.099 0 99.766-44.667 99.766-99.766S154.067 9.143 98.968 9.143zm1735.133 533.949c-51.373-47.283-113.048-84.251-181.197-107.108-136.458-55.311-172.773-80.851-183.947-138.317-15.963-90.189 79.813-142.067 164.415-139.673 72.585 4.411 140.275 20.133 203.072 45.442-1.944-5.934 35.568-138.823 35.568-143.611s-74.226-33.92-139.673-45.094c-27.066-3.232-58.412-5.076-90.189-5.076s-63.123 1.844-93.937 5.431c-142.708 26.781-239.681 112.181-260.033 236.29-1.989 12.389-3.125 26.671-3.125 41.219 0 33.763 6.121 66.096 17.314 95.95 30.906 77.927 111.916 140.181 247.199 192.06 119.719 45.094 166.809 79.813 175.588 146.457.87 5.557 1.368 11.966 1.368 18.491 0 50.535-29.819 94.104-72.822 114.074-97.749 45.418-244.205-2.071-347.962-39.583-2.394 2.394-39.906 148.851-39.906 148.851 63.716 30.898 137.784 52.405 215.851 60.422 12.156.717 23.071.991 34.049.991 28.669 0 56.902-1.87 84.583-5.494 140.804-15.614 236.18-73.877 282.871-175.24 15.849-30.882 25.138-67.379 25.138-106.045 0-4.81-.144-9.587-.427-14.326.115-1.783.163-4.644.163-7.517 0-69.742-28.263-132.882-73.96-178.593z"/></svg>