<svg xmlns="http://www.w3.org/2000/svg" viewBox="0 0 789 1024"><path d="M346.512 752.543c-54.849-44.256-88.747-120.291-88.747-225.986v-13.418c0-161.957 78.624-266.475 200.563-266.475 61.44 0 114.641 23.54 178.2 76.741l25.423 21.657 67.09-115.818L244.818 65.169C157.493 113.414 89.826 188.15 51.685 278.406l132.87 530.634zm387.943-532.48l47.08-80.978-16.714-15.066C675.839 43.511 582.855 9.143 454.325 9.143c-72.839.395-141.412 18.278-201.852 49.658zM43.314 293.98C15.999 359.583.094 435.786 0 515.692v12.278a537.135 537.135 0 0 0-.018 4.397c0 114.836 35.201 221.451 95.4 309.642l78.815-29.673zm598.393 422.547c-56.261 48.728-106.402 79.095-182.201 79.095-39.205-.436-75.245-13.636-104.25-35.628l-255.445 89.3c74.881 111.612 200.574 184.089 343.196 184.089.669 0 1.338-.002 2.007-.005 4.869.208 10.703.326 16.565.326 122.557 0 233.035-51.716 310.802-134.515l16.217-16.468-122.88-186.674z"/></svg>