<svg width="17" height="16" viewBox="0 0 17 16" fill="none" xmlns="http://www.w3.org/2000/svg">
<path fill-rule="evenodd" clip-rule="evenodd" d="M14.7182 8C14.7182 11.5708 11.7784 14.5 8.10909 14.5C4.43977 14.5 1.5 11.5708 1.5 8C1.5 4.42924 4.43977 1.5 8.10909 1.5C11.7784 1.5 14.7182 4.42924 14.7182 8ZM16.2182 8C16.2182 12.4183 12.5876 16 8.10909 16C3.63056 16 0 12.4183 0 8C0 3.58172 3.63056 0 8.10909 0C12.5876 0 16.2182 3.58172 16.2182 8ZM8.18842 5.74908L9.68933 7.24999H3.71875V8.74999H9.68933L8.18842 10.2509L9.24908 11.3116L12.5607 7.99999L9.24908 4.68842L8.18842 5.74908Z" fill="#00A88E"/>
</svg>
