<svg xmlns="http://www.w3.org/2000/svg" viewBox="0 0 951 1024"><path d="M832 704q0-22.857-16-38.857L697.143 546.286q-16-16-38.857-16-24 0-41.143 18.286 1.714 1.714 10.857 10.571t12.286 12.286 8.571 10.857 7.429 14.571 2 15.714q0 22.857-16 38.857t-38.857 16q-8.571 0-15.714-2t-14.571-7.429-10.857-8.571-12.286-12.286-10.571-10.857q-18.857 17.714-18.857 41.714 0 22.857 16 38.857l117.714 118.286q15.429 15.429 38.857 15.429 22.857 0 38.857-14.857l84-83.429q16-16 16-38.286zM430.286 301.143q0-22.857-16-38.857L296.572 144q-16-16-38.857-16-22.286 0-38.857 15.429l-84 83.429q-16 16-16 38.286 0 22.857 16 38.857l118.857 118.857q15.429 15.429 38.857 15.429 24 0 41.143-17.714-1.714-1.714-10.857-10.571t-12.286-12.286-8.571-10.857-7.429-14.571-2-15.714q0-22.857 16-38.857t38.857-16q8.571 0 15.714 2t14.571 7.429 10.857 8.571 12.286 12.286 10.571 10.857q18.857-17.714 18.857-41.714zM941.714 704q0 68.571-48.571 116l-84 83.429q-47.429 47.429-116 47.429-69.143 0-116.571-48.571L458.858 784.001q-47.429-47.429-47.429-116 0-70.286 50.286-119.429l-50.286-50.286q-49.143 50.286-118.857 50.286-68.571 0-116.571-48L57.144 381.715q-48-48-48-116.571t48.571-116l84-83.429q47.429-47.429 116-47.429 69.143 0 116.571 48.571L492 185.143q47.429 47.429 47.429 116 0 70.286-50.286 119.429l50.286 50.286q49.143-50.286 118.857-50.286 68.571 0 116.571 48l118.857 118.857q48 48 48 116.571z"/></svg>