<svg xmlns="http://www.w3.org/2000/svg" viewBox="0 0 878 1024"><path d="M199.429 366.286v566.286H10.858V366.286h188.571zm12-174.857q.571 41.714-28.857 69.714t-77.429 28H104q-46.857 0-75.429-28T0 191.429q0-42.286 29.429-70t76.857-27.714 76 27.714 29.143 70zM877.714 608v324.571h-188V629.714q0-60-23.143-94t-72.286-34q-36 0-60.286 19.714t-36.286 48.857q-6.286 17.143-6.286 46.286v316h-188q1.143-228 1.143-369.714t-.571-169.143l-.571-27.429h188v82.286h-1.143q11.429-18.286 23.429-32T546 386.857 595.714 362t65.429-8.857q97.714 0 157.143 64.857t59.429 190z"/></svg>