<svg xmlns="http://www.w3.org/2000/svg" viewBox="0 0 1024 1024"><path d="M1024 414.857v453.714q0 37.714-26.857 64.571t-64.571 26.857H91.429q-37.714 0-64.571-26.857T.001 868.571V414.857q25.143 28 57.714 49.714 206.857 140.571 284 197.143 32.571 24 52.857 37.429t54 27.429 62.857 14h1.143q29.143 0 62.857-14t54-27.429 52.857-37.429q97.143-70.286 284.571-197.143 32.571-22.286 57.143-49.714zm0-168q0 45.143-28 86.286t-69.714 70.286Q711.429 552.572 658.857 589.143q-5.714 4-24.286 17.429t-30.857 21.714T574 646.857t-32.857 15.429-28.571 5.143h-1.143q-13.143 0-28.571-5.143t-32.857-15.429-29.714-18.571-30.857-21.714-24.286-17.429q-52-36.571-149.714-104.286T98.287 403.428q-35.429-24-66.857-66t-31.429-78q0-44.571 23.714-74.286t67.714-29.714h841.143q37.143 0 64.286 26.857t27.143 64.571z"/></svg>