<svg xmlns="http://www.w3.org/2000/svg" viewBox="0 0 1851 1024"><path d="M1625.043 687.172v342.261h228.174V687.172h-228.174zm139.131 318.145h-52.87v-17.623h52.87v17.623zm62.145-41.275h-176.232V713.143h176.232v249.043zM823.652 833.259V405.665H62.609v427.594L1.855 994.187c-1.185 3.029-1.871 6.536-1.871 10.203 0 15.88 12.873 28.754 28.754 28.754h827.378c16.373-.026 29.635-13.305 29.635-29.681 0-3.662-.663-7.169-1.876-10.408zm-711.42-377.971h661.333v377.971H112.232V455.288zM96.928 883.346h693.333l37.565 100.174H59.362zm1491.014-48.232H1176.58V477.085h537.043v175.304h44.522V432.563h-626.087v447.072h455.884v-44.522zm-187.362-49.623h89.507v26.899h-89.507v-26.899zm-534.725-70.029h109.913v66.319l-103.42 49.159-6.493 36.638V880.1h231.42V610.187h-231.42v105.275zM585.739 9.143v361.739h42.667V61.085h952.116v336.696h42.203V9.143H585.739z"/></svg>