<svg xmlns="http://www.w3.org/2000/svg" viewBox="0 0 1289 1024"><path d="M0 957.291h1289.481v75.852H0v-75.852zM1061.926 9.143h75.852v948.148h-75.852V9.143zm-493.037 0h568.889v75.852H568.889V9.143zm0 0h75.852v331.852h-75.852V9.143zm189.63 493.037h75.852v455.111h-75.852V502.18zm-606.815 0h75.852v455.111h-75.852V502.18zm227.555 189.63h75.852v303.407h-75.852V691.81zm151.704 0h75.852v303.407h-75.852V691.81zm113.778-530.963h417.185v75.852H644.741v-75.852zM379.259 691.81h227.556v75.852H379.259V691.81zm530.963-341.334h75.852v75.852h-75.852v-75.852zm0 189.63h75.852v75.852h-75.852v-75.852zm0 189.63h75.852v75.852h-75.852v-75.852zM455.111 502.18h75.852v75.852h-75.852V502.18zm-303.661-.276l341.121-341.121 53.635 53.635-341.121 341.121-53.635-53.635zm287.742-287.369l53.635-53.635 341.389 341.389-53.635 53.635-341.389-341.389z"/></svg>