<svg xmlns="http://www.w3.org/2000/svg" viewBox="0 0 1024 1024"><path d="M403.813 368.088c0 37.286-30.226 67.512-67.512 67.512s-67.512-30.226-67.512-67.512 30.226-67.512 67.512-67.512 67.512 30.226 67.512 67.512zm351.397 0c0 37.286-30.226 67.512-67.512 67.512s-67.512-30.226-67.512-67.512 30.226-67.512 67.512-67.512 67.512 30.226 67.512 67.512zM512 836.478c-156.41 0-293.111-70.028-340.914-174.441-6.709-14.676 0-32.288 14.676-38.998s32.288 0 38.998 14.676C262.5 720.323 380.331 777.771 512 777.771s249.92-57.867 287.24-140.056c6.709-14.676 24.321-21.386 38.998-14.676s21.386 24.321 14.676 38.998C805.111 766.45 668.409 836.478 512 836.478zM143.41 733.743c-7.548 0-15.096-2.935-20.547-8.387-11.322-11.322-11.322-30.192 0-41.514l99.8-100.219c11.322-11.322 30.192-11.322 41.514 0s11.322 30.192 0 41.514l-99.8 99.8c-5.871 5.871-13.419 8.806-20.966 8.806zm737.18 0c-7.548 0-15.096-2.935-20.966-8.387l-99.8-99.8c-11.322-11.322-11.322-30.192 0-41.514s30.192-11.322 41.514 0l99.8 99.8c11.322 11.322 11.322 30.192 0 41.514-5.451 5.451-12.999 8.387-20.547 8.387z"/></svg>