<svg xmlns="http://www.w3.org/2000/svg" viewBox="0 0 731 1024"><path d="M365.714 527.429q-107.429 0-183.429-76t-76-182.857q0-107.429 76-183.429t183.429-76 183.429 76 76 183.429q0 106.857-76 182.857t-183.429 76zm0-386.857q-52.571 0-90 37.429t-37.429 90.571q0 52.571 37.429 90t90 37.429 90-37.429 37.429-90q0-53.143-37.429-90.571t-90-37.429zm298.857 418.285q7.429 15.429 8.571 28.286t-2.571 23.143-15.143 22-24.286 21.143-35.143 23.714q-65.714 41.714-180 53.714L457.713 772l152.571 152.571q17.143 17.714 17.143 42.286t-17.143 41.714l-6.857 7.429q-17.714 17.143-42.286 17.143T518.855 1016q-38.286-38.857-152.571-153.143L213.713 1016q-17.714 17.143-42.286 17.143T129.713 1016l-6.857-7.429q-17.714-17.143-17.714-41.714t17.714-42.286L316.57 730.857q-116-12-181.143-53.714-22.286-14.286-35.143-23.714t-24.286-21.143-15.143-22-2.571-23.143 8.571-28.286q5.714-11.429 16-20t24-12.571 32 1.143 37.143 20q2.857 2.286 8.571 6.286t24.571 14 39.429 17.429 52.571 13.714 64.571 6.286q52 0 99.429-14.571t68.571-28.857l21.714-14.286q18.857-14.857 37.143-20t32-1.143 24 12.571 16 20z"/></svg>