<svg xmlns="http://www.w3.org/2000/svg" viewBox="0 0 1024 1024"><path d="M853.143 139.429c-60-40-130.286-62.857-205.143-62.857-121.714 0-229.143 62.286-304.571 156-54.857 68.571-93.143 165.714-96 276.571v24c2.857 110.857 41.143 208 96 276.571 75.429 93.714 182.857 156 304.571 156 74.857 0 145.143-22.857 205.143-62.857C762.857 984 642.857 1033.143 512 1033.143c-8 0-16.571 0-24.571-.571C216 1020.001 0 796.001 0 521.143c0-282.857 229.143-512 512-512h1.714C644 9.714 762.857 58.857 853.143 139.429zM1024 521.143c0 149.143-64 282.857-165.714 376.571-38.857 23.429-81.714 36-126.857 36-52.571 0-102.286-17.143-145.714-48 116-42.286 201.714-189.143 201.714-364.571 0-174.857-85.143-321.714-201.143-364.571 43.429-30.286 92.571-47.429 145.143-47.429 46.286 0 89.714 13.143 129.143 37.143C961.143 240 1024.001 373.143 1024.001 521.143z"/></svg>