<svg xmlns="http://www.w3.org/2000/svg" viewBox="0 0 1015 1024"><path d="M330.807 939.264l-223.799 27.46L0 95.127 699.629 9.315l12.958 105.893 302.918 53.461-152.06 864.475zm490.59 34.325l134.296-763.13-236.499-41.791 87.185 712.243-300.344 36.985zm-654.749-83.495l563.187-69.165-90.189-735.155L76.63 155.11zm32.351-160.126l221.825-27.117 8.581 68.135-221.739 27.288zm-14.588-119.623l392.335-48.227 8.581 68.65-392.592 48.227zm-14.76-119.623l392.42-48.227 8.581 68.65-392.335 48.227zM155.063 371.1l426.488-52.346 8.581 68.65-426.574 52.346zm-14.674-119.708l153.69-18.965 8.581 68.65-153.776 18.965z"/></svg>