<svg xmlns="http://www.w3.org/2000/svg" viewBox="0 0 1022 1024"><path d="M92.461 1033.143c-34.65-1.209-64.472-20.763-80.166-49.203C0 962.367-20.48 905.143 51.802 832.861l2.711-2.711c32.226-32.226 92.461-92.461 240.941-144.264l5.722-2.108 2.711-5.421c21.082-42.165 42.466-87.944 63.548-136.132l12.951-30.118c18.974-42.165 35.238-78.908 47.887-113.845l2.409-6.927-3.012-5.722c-44.433-64.781-70.96-144.875-70.96-231.165 0-8.949.285-17.832.847-26.64C360.206 40.163 417.731 8.54 453.872 8.54c25.901 0 93.666 25.6 96.376 141.854 2.711 47.887-4.819 104.809-50.296 229.496l-2.711 7.529 4.819 7.228c44.094 60.105 86.845 112.507 132.038 162.665 15.538 19.546 35.115 39.123 50.174 52.676l4.518 4.518h42.767c145.167 0 215.04 32.527 238.532 46.682 32.826 15.485 55.136 48.308 55.136 86.341 0 52.562-42.61 95.172-95.172 95.172-4.361 0-8.654-.293-12.86-.861a321.044 321.044 0 0 1-49.775-6.017c-48.822-13.807-85.565-33.684-200.916-154.757l-4.819-5.12h-6.927c-64.562 4.489-124.014 13.155-181.935 25.902-44.976 8.371-89.542 19.533-133.071 33.049l2.686-.522-3.012 5.722c-84.329 166.551-153.6 262.626-206.306 285.214-11.221 4.971-24.308 7.865-38.072 7.865-.91 0-1.816-.013-2.72-.038zm125.892-248.471c-48.17 23.731-89.296 53.984-124.26 90.222-40.484 40.489-35.665 67.294-34.159 72.112v2.409l7.228 10.842c4.308 7.603 12.344 12.65 21.559 12.65h.132a37.476 37.476 0 0 0 18.862-4.616c19.08-6.226 60.04-40.259 129.612-162.537l24.998-43.369zm556.574-87.04c60.235 56.32 83.426 68.969 115.652 76.198 7.584 2.181 16.295 3.435 25.299 3.435 1.695 0 3.38-.044 5.053-.132 1.353.208 3.191.32 5.054.32 13.785 0 26.128-6.174 34.414-15.908l.053-2.172v-2.409c.929-3.351 1.463-7.198 1.463-11.17 0-16.675-9.411-31.152-23.212-38.41-4.153-2.523-45.715-28.726-154.741-35.351l-41.261-2.711zM461.101 478.978c-12.047 26.805-24.395 54.513-36.442 88.245-8.734 20.48-18.071 42.165-24.094 60.235l-2.108 3.915-15.36 30.118 32.828-9.336c16.206-4.747 35.89-8.86 56.031-11.52 16.853-2.636 32.213-5.346 45.465-7.756 18.131-3.973 41.034-7.583 64.292-9.998l35.096-2.952-25.6-25.901c-37.647-40.358-70.776-79.511-101.195-120.471l-10.541-13.553-15.059 15.059 10.541 4.518zM450.259 69.679c-11.144 2.711-30.118 14.155-30.118 60.235-.351 5.925-.55 12.854-.55 19.83 0 48.092 9.496 93.965 26.715 135.849l15.096 35.267 12.348-38.852c13.745-37.194 21.697-80.154 21.697-124.97 0-1.065-.004-2.13-.013-3.193-3.613-53.748-22.587-74.228-33.731-81.757l-5.421-3.614z"/></svg>