<svg xmlns="http://www.w3.org/2000/svg" viewBox="0 0 847 1024"><path d="M797.227 150.583c-31.316-51.569-76.998-91.685-131.484-115.338-48.197-17.014-101.636-26.43-157.275-26.43-6.26 0-12.493.119-18.695.355L0 9.143v142.72h122.667v740.053H0v141.227h435.84V891.916H311.893v-222.72h182.613c5.385.214 11.708.335 18.059.335 49.702 0 97.663-7.451 142.828-21.298 57.207-20.334 106.5-61.199 137.964-113.933 33.791-54.88 53.416-119.93 53.416-189.563 0-2.183-.019-4.361-.058-6.535.064-2.085.098-4.926.098-7.774 0-66.391-18.436-128.475-50.467-181.414zM574.507 498.53c-28.251 12.754-61.248 20.185-95.981 20.185-2.782 0-5.554-.048-8.313-.142l-158.319.011V161.251h160a211.6 211.6 0 0 1 10.194-.237c36.71 0 71.318 9.002 101.736 24.92q74.096 43.157 74.096 152.597 0 118.613-83.413 160z"/></svg>