<svg xmlns="http://www.w3.org/2000/svg" viewBox="0 0 1024 1024"><path d="M554.667 637.41c0-219.307 166.059-448.853 426.667-500.267l41.984 90.709c-94.507 35.627-177.621 159.659-186.88 245.163 106.935 17.438 187.563 109.14 187.563 219.673v.064c0 135.591-110.251 212.391-221.867 212.391-128.597 0-247.467-98.347-247.467-267.733zM0 637.41c0-219.307 166.059-448.853 426.667-500.267l41.984 90.709c-94.507 35.627-177.621 159.659-186.88 245.163 106.935 17.438 187.563 109.14 187.563 219.673v.064c0 135.591-110.251 212.391-221.867 212.391C118.912 905.143 0 806.796 0 637.41z"/></svg>