<svg xmlns="http://www.w3.org/2000/svg" viewBox="0 0 1328 1024"><path d="M1212.076 670.58V288.686c0-18.339-14.869-33.208-33.208-33.208h-116.229v-83.021H796.977v83.021H531.315v-83.021H265.653v83.021H148.429c-18.339 0-33.208 14.869-33.208 33.208V670.58H-.01v199.246h265.662V670.58H148.428V305.294c-.005-.115-.005-.253-.005-.386 0-8.986 7.285-16.27 16.27-16.27.471 0 .933.02 1.393.059l99.563-.005v83.021h265.662v-83.021H647.54v381.894H531.311v199.246h265.662V670.586H680.744V288.692h116.229v83.021h265.662v-83.021h99.628c8.986 0 16.27 7.285 16.27 16.27 0 .119-.003.234-.005.348v365.268h-115.895v199.246h265.662V670.578z"/></svg>