<svg xmlns="http://www.w3.org/2000/svg" viewBox="0 0 1039 1024"><path d="M385.714 742.857c16-26.286 7.429-56.571-19.429-68-25.714-10.857-60 .571-76 25.714-16.571 25.714-8.571 56 17.143 68 26.286 12 61.714.571 78.286-25.714zm53.715-69.143c5.714-10.286 2.286-21.714-8-25.714-10.286-3.429-22.857 1.143-28.571 10.857-5.714 10.286-2.857 21.143 7.429 25.714 10.286 4 23.429-.571 29.143-10.857zm99.428 61.143c-34.286 77.714-133.714 120-218.286 92.571-81.714-26.286-116-106.857-80.571-179.429 35.429-70.857 126.286-110.857 206.857-90.286 84 21.714 126.286 100.571 92 177.143zm178.286-91.428C706.286 532 560 455.429 390.286 472 220.572 489.143 92.572 592.571 103.429 704s157.143 188 326.857 171.429C600 858.286 728 754.858 717.143 643.429zm176 2.285C893.143 774.285 708 936 429.714 936 217.143 936 0 833.143 0 663.429 0 574.858 56 472.572 152.571 376c129.143-129.143 279.429-187.429 336-130.857 25.143 24.571 27.429 68 11.429 119.429-8 26.286 24.571 11.429 24.571 12 104-44 194.857-46.286 228 1.143 17.714 25.143 16 60.571 0 101.714-7.429 18.857 2.286 21.714 16.571 26.286 58.857 18.286 124 62.286 124 140zm-42.286-356.571c32.571 36 41.714 85.714 27.429 129.143C872.572 436 853.715 445.715 836 440s-27.429-24.571-21.714-42.286c6.857-21.714 2.286-45.714-13.714-63.429s-39.429-24.571-61.143-20c-18.286 4-36.571-7.429-40-25.714-4-18.286 7.429-36 25.714-40 44.571-9.714 93.143 4 125.714 40.571zM954.286 196c67.429 74.286 85.143 176 56.571 265.143-6.857 20.571-28.571 32-49.143 25.143s-32-28.571-25.714-49.143c20.571-63.429 8-136-40-188.571-48-53.143-118.286-73.143-183.429-59.429-21.143 4.571-42.286-9.143-46.857-30.286s9.143-41.714 30.286-46.286c92-19.429 190.857 8.571 258.286 83.429z"/></svg>