<svg xmlns="http://www.w3.org/2000/svg" viewBox="0 0 1024 1024"><path d="M498.857 432q0 47.429-36.286 81.429t-87.143 34-87.143-34T251.999 432q0-48 36.286-81.714t87.143-33.714 87.143 33.714T498.857 432zm286.857 0q0 47.429-36 81.429t-87.429 34q-50.857 0-87.143-34T538.856 432q0-48 36.286-81.714t87.143-33.714q51.429 0 87.429 33.714t36 81.714zm128.572 102.857V153.714q0-49.714-18.286-70.571t-63.429-20.857H197.142q-47.429 0-64.286 19.429t-16.857 72v384.571q24.571 13.143 50.571 22.857t46.286 16 46.286 10.571T299.713 594t40 2.286 33.429.286 32.286-1.143 25.429-1.143q38.857-.571 54.286 15.429 3.429 3.429 5.714 5.143 14.857 14.286 34.857 29.143 4-52 67.429-49.714 2.857 0 20.857.857t24.571 1.143 26 .571 30.286-.571T726 593.716t34.857-4.857 35.429-7.714 38.286-11.143 38.571-15.429 41.143-19.714zm93.143-2.857q-69.143 85.143-212.571 144 48 162.857-13.143 265.714-37.714 64.571-104.571 84.571-59.429 18.286-104-8.571-49.143-29.143-46.857-93.714l-.571-186.286v-.571q-4.571-1.143-14-3.429t-13.429-2.857L497.716 924q2.286 65.143-47.429 93.714-45.143 26.857-104.571 8.571-66.857-20.571-104-85.714-60-102.857-12.571-264.571Q85.716 617.143 16.574 532q-14.286-21.143-2.286-36t34.286.571q1.714 1.143 6.286 4t6.286 4.571V108.571q0-41.143 26.857-70.286t65.143-29.143h718.286q38.286 0 65.143 29.143t26.857 70.286v396.571l12-8.571q22.286-15.429 34.286-.571t-2.286 36z"/></svg>