<svg xmlns="http://www.w3.org/2000/svg" viewBox="0 0 1583 1024"><path d="M0 940.052h1582.545v93.091H0v-93.091zm977.455-325.818h93.091v93.091h-93.091v-93.091zm325.818-232.727h93.091v558.545h-93.091V381.507zm-1117.091 0h93.091v558.545h-93.091V381.507zm0 0h1117.091v93.091H186.182v-93.091zM232.727 9.143h1117.091v93.091H232.727V9.143zm232.728 605.091h93.091v372.364h-93.091V614.234zm232.727-46.546h93.091v372.364h-93.091V567.688zm-232.727 0h279.273v93.091H465.455v-93.091zm93.09-186.181h93.091v93.091h-93.091v-93.091zM186.182 9.143h93.091v465.455h-93.091V9.143zm279.273 0h93.091v465.455h-93.091V9.143zm279.272 0h93.091v465.455h-93.091V9.143zm279.273 0h93.091v465.455H1024V9.143zm279.273 0h93.091v465.455h-93.091V9.143z"/></svg>