<svg xmlns="http://www.w3.org/2000/svg" viewBox="0 0 1151 1024"><path d="M53.642 198.04H0v675.275h604.65c-6.009-6.412-15.967-28.404-19.869-52.429l-531.139-.814V251.283h254.626V198.04H53.642zm935.096-90.003l-329.146.1-89.903 89.903h-64.131v53.243h86.207l90.003-90.003h253.927v150.638l53.243 25.073V108.037h-.2zm-85.209 282.496L656.295 506.708v282.097c0 52.344 75.619 142.547 247.234 244.338 171.616-101.791 247.234-191.994 247.234-244.338V506.708zm-14.784 482.981L734.311 695.106l55.041-47.649 95.697 110.481 150.938-199.785 58.038 43.853zM505.657 430.091l-65.13 77.417V9.143h-71.923v494.469l-61.834-73.521-55.041 47.649 154.434 178.408L560.597 477.74l-54.941-47.649z"/></svg>