<svg xmlns="http://www.w3.org/2000/svg" viewBox="0 0 1255 1024"><path d="M1202.553 9.143H0v1024h1254.838v-1024h-52.285zm0 971.715H52.285V342.459h1150.268v638.399zm0-690.684H52.285V61.428h1150.268v228.746zM196.068 172.533c0 21.657-17.557 39.214-39.214 39.214s-39.214-17.557-39.214-39.214 17.557-39.214 39.214-39.214 39.214 17.557 39.214 39.214zm104.57 0c0 21.657-17.557 39.214-39.214 39.214s-39.214-17.557-39.214-39.214 17.557-39.214 39.214-39.214 39.214 17.557 39.214 39.214zm104.57 0c0 21.657-17.557 39.214-39.214 39.214s-39.214-17.557-39.214-39.214 17.557-39.214 39.214-39.214 39.214 17.557 39.214 39.214z"/></svg>