<svg xmlns="http://www.w3.org/2000/svg" viewBox="0 0 1186 1024"><path d="M1185.006 730.451l-185.222-15.972-72.388-170.538-72.388 170.795-185.222 15.714L810.441 852.3l-42.248 180.327 159.203-95.316 159.203 96.089-42.248-180.327zm-257.61 158.43l-96.861 58.477 25.761-110.257-85.527-74.192 113.606-9.532 43.021-103.044 44.051 103.044 112.833 9.789-84.754 73.934 25.761 110.257zM606.929 740.498H355.502L195.011 900.989V740.498H51.522V60.665h1067.021v590.442l51.522 4.895V9.143H0V792.02h146.323v226.697L372.762 792.02h293.933l-59.766-51.522z"/></svg>