<svg xmlns="http://www.w3.org/2000/svg" viewBox="0 0 1195 1024"><path d="M1195.013 61.044V9.143H992.341l-63.578 271.44H.001l123.005 493.056h689.76l-12.197 51.901H250.163c-57.328 0-103.801 46.473-103.801 103.801s46.473 103.801 103.801 103.801 103.801-46.473 103.801-103.801c-.205-19.179-5.58-37.06-14.793-52.369l392.63.468c-8.952 14.841-14.327 32.722-14.532 51.843-.002.232-.002.438-.002.644 0 57.328 46.473 103.801 103.801 103.801s103.801-46.473 103.801-103.801c0-46.112-30.067-85.2-71.665-98.731l180.918-770.153h161.411zM163.487 721.739L66.433 332.484h850.133l-91.605 389.255H163.487zm138.575 207.603c0 28.664-23.237 51.901-51.901 51.901s-51.901-23.237-51.901-51.901c0-28.664 23.237-51.901 51.901-51.901s51.901 23.237 51.901 51.901zm570.907 0c0 28.664-23.237 51.901-51.901 51.901s-51.901-23.237-51.901-51.901c0-28.664 23.237-51.901 51.901-51.901s51.901 23.237 51.901 51.901z"/></svg>