<svg xmlns="http://www.w3.org/2000/svg" viewBox="0 0 1008 1024"><path d="M730.932 533.843c-137.878 0-249.65 111.772-249.65 249.65s111.772 249.65 249.65 249.65 249.65-111.772 249.65-249.65-111.772-249.65-249.65-249.65zm0 461.961c-117.256 0-212.311-95.055-212.311-212.311s95.055-212.311 212.311-212.311 212.311 95.055 212.311 212.311-95.055 212.311-212.311 212.311zm-235.756-19.755C239.905 972.783 34.225 765.085 34.225 509.348c0-257.772 208.965-466.737 466.737-466.737s466.737 208.965 466.737 466.737c0 26.821-2.262 53.114-6.607 78.698-24.982-33.651 8.179.856 32.177 41.424 9.657-33.991 14.755-74.633 14.755-116.466 0-278.274-225.585-503.859-503.859-503.859S.306 234.73.306 513.004c0 277.861 224.916 503.19 502.621 503.858h30.456c31.532 29.381-7.582-1.69-37.702-40.143zm-64.475-242.052c-93.179-31.8-158.997-118.58-158.997-220.732 0-128.526 104.191-232.717 232.717-232.717 116.484 0 212.979 85.581 230.039 197.296 13.379 1.285 30.596 2.798 47.346 5.676-17.403-139.838-134.743-247.373-277.199-247.373-152.985 0-277.003 124.019-277.003 277.003 0 125.173 83.025 230.954 197.01 265.278 1.948-12.291 3.464-29.5 6.344-46.242zm209.923-241.401c-10.34-67.16-67.721-117.986-136.974-117.986-76.492 0-138.502 62.009-138.502 138.502 0 60.882 39.282 112.589 93.883 131.158 24.184-59.128 93.535-123.605 179.431-151.076zm176.055 407.063L614.822 697.802l30.394-30.394 201.857 201.857-30.394 30.394zm-201.696-30.42L816.84 667.382l30.394 30.394-201.857 201.857-30.394-30.394z"/></svg>