<svg xmlns="http://www.w3.org/2000/svg" viewBox="0 0 1018 1024"><path d="M690.924 9.143c-179.602.558-324.982 146.282-324.982 325.962 0 180.024 145.939 325.963 325.963 325.963s325.962-145.938 325.963-325.962v-.002c0-180.024-145.939-325.963-325.963-325.963l-1.034.002zm0 613.174c-158.487 0-286.965-128.479-286.965-286.965S532.438 48.387 690.924 48.387c158.487 0 286.965 128.479 286.965 286.965-.14 158.381-128.565 286.72-286.965 286.72zm78.732-477.54c-63.395 0-114.786 51.391-114.786 114.786s51.391 114.786 114.786 114.786 114.786-51.391 114.786-114.786-51.391-114.786-114.786-114.786zm0 196.216c-44.43 0-80.448-36.018-80.448-80.448s36.018-80.448 80.448-80.448c44.43 0 80.448 36.018 80.448 80.448-.691 43.9-36.44 79.222-80.439 79.222h-.01zM555.045 612.751L403.714 763.837H269.061v115.522H153.784v115.277H38.507V859.983l373.055-372.81 3.189-38.262-11.282-11.528L.001 840.851v192.291h192.291V917.865h115.277V802.343h115.522L594.044 631.39l-20.848-21.093-18.15 2.453z"/></svg>