<svg xmlns="http://www.w3.org/2000/svg" viewBox="0 0 1172 1024"><path d="M558.044 1033.394v-3.764c-22.332-89.829-328.202-137.754-430.075-137.754H62.73c-1.847-.257-3.98-.404-6.148-.404s-4.301.147-6.391.432l-18.827-.027c-8.531 0-31.365 0-31.365-19.07V24.952l1.506-1.255a27.253 27.253 0 0 0 2.692-3.646c2.341-3.391 4.732-6.261 7.35-8.905l1.5-1.5h44.664c143.275 0 312.394 11.793 479.255 98.862 18.107 11.266 33.698 24.303 47.264 39.216C652.89 63.844 941.698 9.646 1048.84 9.646h109.902l1.506 1.506c6.325 2.915 10.795 8.889 11.535 15.973l.007 843.173c.022.32.035.693.035 1.069 0 8.628-6.599 15.715-15.025 16.49-12.699 3.314-27.203 5.213-42.15 5.213-2.848 0-5.681-.069-8.496-.205l-62.333.015c-137.002 10.288-266.727 19.823-396.452 94.596-16.277 9.729-28.893 24.125-36.167 41.329l-.216 4.589h-52.944zm473.985-971.809c-133.991 9.284-260.454 18.066-386.917 95.349-15.096 10.184-26.236 25.235-31.234 42.868l-2.891 4.807v752.757c143.777-95.851 291.568-106.139 434.842-115.925 23.837-2.258 41.903-3.262 56.959-3.262h17.815V59.829h-63.984zM66.995 839.434c14.553 0 32.87 0 56.457 3.262h11.793c138.507 9.535 281.782 19.321 424.304 115.172V200.344c0-59.468-193.208-109.401-214.034-112.914-14.552-4.035-32.335-7.554-50.503-9.838-21.26-4.214-41.584-6.472-60.403-8.479l-14.302-1.756c-19.294-2.774-42.358-4.756-65.737-5.495l-34.38-2.033H50.184v780.107h1.506z"/></svg>