<svg xmlns="http://www.w3.org/2000/svg" viewBox="0 0 1107 1024"><path d="M759.581 883.029h58.338v55.967h-58.338v-55.967zm37.469-287.422a152.15 152.15 0 0 0-1.008-.004c-34.051 0-65.049 13.072-88.249 34.472l33.29 41.182c13.587-11.164 30.707-18.498 49.459-20.133a45.943 45.943 0 0 1 5.634-.357c22.429 0 40.773 17.493 42.131 39.58.006 48.972-78.253 59.88-78.253 128.653v23.715h58.338v-19.446c0-51.224 82.527-60.235 82.527-138.494-.474-54.781-50.275-89.167-103.87-89.167zM1096.567 11.04l-1.423-1.423h-103.87c-101.262 0-374.218 50.512-439.196 130.431-13.222-14.395-28.273-26.806-44.861-36.952C349.791 20.289 189.954 9.143 54.543 9.143H12.331l-1.423 1.897a61.355 61.355 0 0 0-6.739 8.32c-.966 1.46-1.824 2.544-2.762 3.553L-.001 24.32v801.082c0 18.023 21.58 18.023 29.643 18.023h18.023a44.477 44.477 0 0 1 11.925 1.249l61.354-.063c83.001 0 308.291 32.963 382.992 96.282-8.981-18.073-16.345-39.079-21.028-61.077-118.888-66.034-237.462-74.334-354.375-82.16l-11.857-1.66c-22.292 0-39.604-2.134-53.358-2.134H47.429V57.047h66.164l31.541 1.66c23.048.722 44.846 2.596 66.288 5.583l10.31 1.531c16.837 1.897 35.809 4.031 54.069 7.826 19.003 2.346 35.811 5.673 52.173 10.085 17.074 2.721 199.677 50.15 199.677 106.117v360.463c14.564-19.579 30.956-36.573 49.263-51.28l.538-305.152 1.66-4.031c4.847-17.176 15.376-31.401 29.386-40.863 118.83-73.205 239.301-81.505 365.937-90.279l23.715-1.66h61.421v472.871c18.988 21.009 34.904 45.281 46.736 71.776l.694-575.476a18.77 18.77 0 0 0-10.326-15.128zM802.742 487.705c-150.618 0-272.719 122.1-272.719 272.719s122.1 272.719 272.719 272.719c150.618 0 272.719-122.1 272.719-272.719s-122.1-272.719-272.719-272.719zm0 498.009c-124.424 0-225.289-100.866-225.289-225.289s100.866-225.289 225.289-225.289c124.424 0 225.289 100.866 225.289 225.289S927.165 985.714 802.742 985.714z"/></svg>