<svg xmlns="http://www.w3.org/2000/svg" viewBox="0 0 1050 1024"><path d="M44.9 602.418c12.563-91.757 89.992-176.897 165.868-187.043a51.078 51.078 0 0 1 8.354.012c2.9.189 5.754.982 8.33 2.252 1.282.745 2.974 1.219 4.778 1.219 2.827 0 5.381-1.165 7.21-3.04l108.311-108.292c2.251-2.261 3.643-5.379 3.643-8.823s-1.392-6.562-3.643-8.823c-2.751-2.772-4.452-6.591-4.452-10.807s1.701-8.035 4.453-10.809l29.555-29.555c2.772-2.752 6.592-4.452 10.808-4.452s8.035 1.701 10.809 4.453l8.822 8.822 70.582-70.582c7.87-7.796 12.743-18.606 12.743-30.554s-4.873-22.758-12.739-30.55l-93.985-93.985c-7.796-7.87-18.606-12.743-30.554-12.743s-22.758 4.873-30.55 12.739l-70.586 70.586 7.269 7.288c3.58 3.628 5.791 8.614 5.791 14.116s-2.211 10.489-5.793 14.119l-22.688 22.726c-3.628 3.58-8.614 5.791-14.116 5.791s-10.489-2.211-14.119-5.793c-1.831-1.832-4.364-2.967-7.162-2.967s-5.331 1.135-7.164 2.969L84.812 260.536c-1.86 1.875-3.01 4.457-3.01 7.308s1.15 5.433 3.01 7.308a11.946 11.946 0 0 1 3.441 8.405c0 2.544-.792 4.903-2.144 6.843-141.791 209.445-41.211 312.019-41.211 312.019zm758.319-96.686c63.121 1.323 128.832-20.829 177.664-69.7 67.283-67.283 85.447-165.063 55.622-249.532L917.781 305.224l-134.106-13.56-15.056-135.622L886.538 38.123C802.146 9.2 704.904 26.903 638.292 93.534c-68.223 68.453-84.91 169.359-57.444 250.395l-.384.384q1.918 3.836 4.028 7.672l-92.409 83.701-106.391-98.355-103.323 103.227 93.1 100.752-351.32 318.388C9.228 873.418-.088 893.031-.088 914.821c0 20.507 8.252 39.086 21.616 52.599l40.271 40.962c13.558 13.855 32.447 22.445 53.343 22.445 21.261 0 40.446-8.893 54.036-23.163l321.696-341.549 317.218 343.322c13.689 14.631 33.115 23.748 54.67 23.748 20.693 0 39.424-8.403 52.966-21.982l40.587-40.587c13.559-13.511 21.949-32.203 21.949-52.853 0-21.513-9.105-40.899-23.671-54.515l-347.2-320.863 74.342-78.887c32.894 22.076 72.865 37.976 121.486 42.234z"/></svg>