<svg xmlns="http://www.w3.org/2000/svg" viewBox="0 0 1099 1024"><path d="M105.397 212.444c0 112.28 91.021 203.301 203.301 203.301s203.301-91.021 203.301-203.301c0-112.28-91.021-203.301-203.301-203.301h-.25c-112.142 0-203.052 90.909-203.052 203.052v.263zm74.927 0v-.25c0-70.761 57.363-128.125 128.125-128.125s128.125 57.363 128.125 128.125c0 70.761-57.363 128.125-128.125 128.125-70.566-.142-127.733-57.309-127.875-127.861zm406.603 0c0 112.28 91.021 203.301 203.301 203.301s203.301-91.021 203.301-203.301c0-112.28-91.021-203.301-203.301-203.301h-.25c-112.142 0-203.052 90.909-203.052 203.052v.263zm74.927 0v-.25c0-70.761 57.363-128.125 128.125-128.125s128.125 57.363 128.125 128.125c0 70.761-57.363 128.125-128.125 128.125h-.263c-70.553-.142-127.72-57.309-127.861-127.861zM346.162 649.018v.332c0 62.754 28.538 118.842 73.343 155.995-66.944 32.054-119.756 85.269-150.221 150.958l-194.107 1.913V724.444v-.211c0-128.833 104.44-233.272 233.272-233.272 33.503 0 65.356 7.063 94.152 19.78-35.518 35.625-56.427 84.508-56.438 138.274zm332.925 156.597c45.163-37.514 73.707-93.686 73.707-156.525 0-53.799-20.922-102.71-55.074-139.043 27.403-12.024 59.256-19.086 92.758-19.086 128.833 0 233.272 104.44 233.272 233.272v233.982H830.439c-31.261-67.602-84.073-120.818-149.471-151.799zm419.84-81.171v-.025c0-170.489-138.209-308.699-308.699-308.699-60 0-116.003 17.118-163.39 46.736-21.94-10.706-48.982-16.491-77.375-16.491s-55.435 5.785-80.011 16.24c-44.751-29.368-100.754-46.486-160.754-46.486-170.489 0-308.699 138.209-308.699 308.699v308.723h322.185C346.911 928.824 439.263 852.41 549.462 852.41s202.552 76.414 226.96 179.146l322.503 1.585V724.442zm-677.339-74.926c.142-70.516 57.339-127.625 127.875-127.625 70.623 0 127.875 57.252 127.875 127.875s-57.252 127.875-127.875 127.875h-.002c-70.623 0-127.875-57.252-127.875-127.875l.002-.79z"/></svg>