<svg xmlns="http://www.w3.org/2000/svg" viewBox="0 0 816 1024"><path d="M129.483 287.712v.1c0 113.392 67.687 210.974 164.86 254.548C123.754 593.484 0 750.119 0 935.659v97.484h816.105v-97.241c-.012-185.673-123.875-342.412-293.479-392.109 96.182-44.874 163.995-142.48 163.995-255.926 0-153.85-124.72-278.569-278.569-278.569-153.795 0-278.481 124.631-278.569 278.406zm90.535 0c0-103.848 84.186-188.034 188.034-188.034s188.034 84.186 188.034 188.034c0 103.848-84.186 188.034-188.034 188.034S220.018 391.56 220.018 287.712zM91.051 942.35v-6.448a306.545 306.545 0 0 1-.129-9.049c0-175.36 142.157-317.517 317.517-317.517s317.517 142.157 317.517 317.517c0 3.182-.047 6.353-.14 9.513l.011 5.985z"/></svg>