<svg xmlns="http://www.w3.org/2000/svg" viewBox="0 0 1108 1024"><path d="M1095.429 306.286q13.143 36.571-85.714 168-13.714 18.286-37.143 48.571-44.571 57.143-51.429 74.857-9.714 23.429 8 46.286 9.714 12 46.286 46.857H976l2.286 2.286q80.571 74.857 109.143 126.286 1.714 2.857 3.714 7.143t4 15.143-.286 19.429-14.286 15.714-33.714 7.143l-146.286 2.286q-13.714 2.857-32-2.857t-29.714-12.571l-11.429-6.857q-17.143-12-40-36.571t-39.143-44.286-34.857-33.143-32.286-8.857q-1.714.571-4.571 2t-9.714 8.286-12.286 16.857-9.714 29.714-3.714 44.286q0 8.571-2 15.714t-4.286 10.571l-2.286 2.857q-10.286 10.857-30.286 12.571h-65.714q-40.571 2.286-83.429-9.429t-75.143-30.286-58.857-37.714-40.286-32.857l-14.286-13.714q-5.714-5.714-15.714-17.143t-40.857-52-60.571-86.286-70-120.571T2.857 328.572q-3.429-9.143-3.429-15.429T1.142 304l2.286-3.429q8.571-10.857 32.571-10.857l156.571-1.143q6.857 1.143 13.143 3.714t9.143 4.857l2.857 1.714q9.143 6.286 13.714 18.286 11.429 28.571 26.286 59.143t23.429 46.571l9.143 16.571q16.571 34.286 32 59.429t27.714 39.143 23.714 22 19.429 8 15.429-2.857q1.143-.571 2.857-2.857t6.857-12.571 7.714-26.857 5.429-46.286 0-71.429q-1.143-22.857-5.143-41.714t-8-26.286l-3.429-6.857q-14.286-19.429-48.571-24.571-7.429-1.143 2.857-13.714 9.714-10.857 21.714-17.143Q421.142 260 527.427 261.143q46.857.571 77.143 7.429 11.429 2.857 19.143 7.714T635.427 290t6 18.286 2 26-.571 31.429-1.429 40.286-.857 47.143q0 6.286-.571 24t-.286 27.429 2 23.143 6.571 22.286 12.857 14q4.571 1.143 9.714 2.286t14.857-6.286 21.714-19.714 29.714-38.286 38.857-61.429q34.286-59.429 61.143-128.571 2.286-5.714 5.714-10t6.286-6l2.286-1.714 2.857-1.429 7.429-1.714 11.429-.286 164.571-1.143q22.286-2.857 36.571 1.429t17.714 9.429z"/></svg>