<svg xmlns="http://www.w3.org/2000/svg" viewBox="0 0 1170 1024"><path d="M331.429 272.572c0-31.429-20.571-52-52-52-30.857 0-62.286 20.571-62.286 52 0 30.857 31.429 51.429 62.286 51.429 31.429 0 52-20.571 52-51.429zM756 562.286c0-20.571-20.571-41.143-52-41.143-20.571 0-41.143 20.571-41.143 41.143C662.857 583.429 683.428 604 704 604c31.429 0 52-20.571 52-41.714zM621.143 272.572c0-31.429-20.571-52-51.429-52-31.429 0-62.286 20.571-62.286 52 0 30.857 30.857 51.429 62.286 51.429 30.857 0 51.429-20.571 51.429-51.429zM984 562.286c0-20.571-21.143-41.143-52-41.143-20.571 0-41.143 20.571-41.143 41.143C890.857 583.429 911.428 604 932 604c30.857 0 52-20.571 52-41.714zM832 335.429c-13.143-1.714-26.286-2.286-40-2.286-196.571 0-352 146.857-352 327.429 0 30.286 4.571 59.429 13.143 86.857-13.143 1.143-25.714 1.714-38.857 1.714-52 0-93.143-10.286-145.143-20.571l-144.571 72.571 41.143-124.571C62.286 604.001.001 510.286.001 396.572c0-197.143 186.286-352 414.286-352 203.429 0 382.286 124 417.714 290.857zM1170.286 656c0 93.143-61.714 176-145.143 238.286l31.429 103.429-113.714-62.286c-41.714 10.286-83.429 21.143-124.571 21.143-197.143 0-352-134.857-352-300.571s154.857-300.571 352-300.571c186.286 0 352 134.857 352 300.571z"/></svg>