<svg xmlns="http://www.w3.org/2000/svg" viewBox="0 0 904 1024"><path d="M0 891.916v141.227h374.827V891.916H274.774l137.387-214.613c4.492-6.108 8.943-13.081 12.939-20.34q7.114-13.58 10.528-18.913t4.693-5.333h2.773c1.578 5.126 3.831 9.59 6.707 13.576a70.863 70.863 0 0 0 6.034 10.117l7.953 10.44 8.747 11.307 142.72 214.613h-101.76v140.373h387.84V891.916h-90.667l-256-363.947 260.053-376.107h89.387V9.142H532.055v142.72h98.773L493.441 363.915q-5.333 9.387-13.227 21.333t-11.947 17.92l-2.56 4.053h-2.987c-1.6-5.047-3.851-9.437-6.705-13.359-6.559-11.525-14.05-21.599-22.596-30.668L292.053 151.86h101.333V9.14H6.826v142.72h90.667L349.44 514.527 90.667 891.914z"/></svg>