<svg xmlns="http://www.w3.org/2000/svg" viewBox="0 0 410 1024"><path d="M204.8 111.543h102.4v102.4H204.8v-102.4zm0 204.8h102.4v102.4H204.8v-102.4zm-102.4 204.8Q23.162 787.627 6.339 838.095C2.406 850.55.096 864.881 0 879.737c.052 45.555 23.054 85.676 58.053 109.468 38.666 27.691 86.362 44.103 137.89 44.103 3.115 0 6.215-.06 9.301-.179 2.197.119 5.298.179 8.412.179 51.529 0 99.224-16.412 138.144-44.294 34.784-23.627 57.799-63.812 57.799-109.373v-.103c-.122-14.822-2.43-29.065-6.618-42.479L317.683 558.69c-3.059-11.177-9.512-20.557-18.166-27.218a48.574 48.574 0 0 0-30.047-10.352c-.536 0-1.07.009-1.602.026l-63.069-.002v-102.4h-102.4zm29.257 322.316c19.848-9.597 43.166-15.206 67.793-15.206 1.881 0 3.755.033 5.621.098 1.324-.065 3.198-.098 5.079-.098 24.627 0 47.945 5.609 68.744 15.619q29.037 14.704 29.037 35.671t-29.989 36.084c-19.848 9.597-43.166 15.206-67.793 15.206-1.881 0-3.755-.033-5.621-.098-1.324.065-3.198.098-5.079.098-24.627 0-47.945-5.609-68.744-15.619q-29.037-14.704-29.037-35.671t29.989-36.084zM102.4 213.943h102.4v102.4H102.4v-102.4zm0-204.8h102.4v102.4H102.4V9.143z"/></svg>